<svg xmlns="http://www.w3.org/2000/svg" xmlns:xlink="http://www.w3.org/1999/xlink" width="1080" zoomAndPan="magnify" viewBox="0 0 810 809.999993" height="1080" preserveAspectRatio="xMidYMid meet" version="1.0"><rect x="-81" width="972" fill="#ffffff" y="-80.999999" height="971.999992" fill-opacity="1"/><rect x="-81" width="972" fill="#ffffff" y="-80.999999" height="971.999992" fill-opacity="1"/><rect x="-81" width="972" fill="#ffffff" y="-80.999999" height="971.999992" fill-opacity="1"/><path fill="#f5f5dc" d="M 540.265625 439.304688 C 547.964844 397.984375 556.898438 356.902344 564.679688 315.609375 C 567.007812 303.160156 559.96875 287.234375 546.355469 285.253906 C 540.351562 283.59375 533.316406 289.988281 535.785156 296.101562 C 536.558594 301.238281 542.417969 301.8125 546.355469 303.132812 C 547.5625 306.460938 549.773438 309.902344 548.363281 313.601562 C 547.496094 318.035156 546.597656 322.460938 545.722656 326.894531 L 345.25 326.894531 C 341.289062 326.894531 338.070312 330.101562 338.070312 334.066406 C 338.070312 338.03125 341.289062 341.238281 345.25 341.238281 L 542.863281 341.238281 C 537.503906 368.113281 532.078125 394.984375 526.796875 421.886719 C 525.621094 427.484375 524.785156 433.25 522.429688 438.53125 C 518.207031 440.167969 513.496094 439.335938 509.101562 439.5625 C 456.972656 439.421875 404.835938 439.535156 352.738281 439.503906 C 339.496094 383.09375 326.425781 326.65625 313.15625 270.246094 C 311.460938 259.601562 302.355469 249.792969 291.042969 250.191406 C 277.511719 250.253906 263.953125 249.617188 250.457031 250.566406 C 243.015625 253.117188 243.015625 264.105469 250.3125 266.890625 C 264.558594 268.242188 278.949219 266.519531 293.195312 267.722656 C 296.613281 269.386719 295.980469 274.121094 297.300781 277.21875 C 312.871094 344.273438 328.578125 411.300781 344.433594 478.324219 C 346.476562 489.257812 356.898438 497.980469 368.21875 496.890625 C 423.882812 496.804688 479.546875 497.089844 535.179688 496.746094 C 545.804688 497.089844 545.863281 479.558594 535.238281 479.816406 C 485.320312 479.472656 435.371094 479.730469 385.453125 479.675781 C 377.953125 479.5 370.34375 480.363281 362.933594 478.871094 C 359.632812 471.898438 358.742188 464.09375 356.761719 456.71875 C 410.414062 456.71875 464.066406 456.746094 517.722656 456.71875 C 528.148438 457.609375 538.714844 449.71875 540.265625 439.304688 Z M 540.265625 439.304688 " fill-opacity="1" fill-rule="nonzero"/><path fill="#f5f5dc" d="M 374.363281 503.230469 C 364.539062 505.152344 356.382812 513.332031 354.488281 523.140625 C 351.269531 536.65625 360.921875 551.40625 374.652344 553.730469 C 388.871094 557 404.121094 546.039062 405.328125 531.492188 C 408.027344 514.648438 390.910156 499.011719 374.363281 503.230469 Z M 386.828125 533.15625 C 384.074219 537.6875 377.0625 538.578125 373.585938 534.363281 C 368.816406 530.144531 371.429688 521.710938 377.375 520.21875 C 384.445312 517.519531 391.828125 527.21875 386.828125 533.15625 Z M 386.828125 533.15625 " fill-opacity="1" fill-rule="nonzero"/><path fill="#f5f5dc" d="M 501.003906 503.171875 C 482.191406 506.042969 473.601562 531.496094 486.527344 545.296875 C 498.191406 560.042969 524.585938 555.480469 530.332031 537.460938 C 537.910156 519.527344 519.929688 498.410156 501.003906 503.171875 Z M 510.796875 535.566406 C 501.980469 542.421875 491.699219 526.785156 501.40625 521.335938 C 510.222656 514.449219 520.5625 530.113281 510.796875 535.566406 Z M 510.796875 535.566406 " fill-opacity="1" fill-rule="nonzero"/></svg>